<svg width="180" height="57" viewBox="0 0 180 57" fill="none" xmlns="http://www.w3.org/2000/svg">
<path d="M89.2 16.6V41.4H91.6V43H80.8V41.4H83.2V32.08H73.2V41.4H75.6V43H64.8V41.4H67.2V16.6H64.8V15H75.6V16.6H73.2V30.28H83.2V16.6H80.8V15H91.6V16.6H89.2ZM105.343 33.76C107.076 33.6 108.409 32.9467 109.343 31.8C110.303 30.6267 110.783 29.4533 110.783 28.28C110.783 27.08 110.516 26.16 109.983 25.52C109.476 24.88 108.689 24.56 107.623 24.56C106.583 24.56 105.583 25.3067 104.623 26.8C103.663 28.2933 103.183 30.2933 103.183 32.8C103.183 35.3067 103.636 37.32 104.543 38.84C105.449 40.36 106.743 41.12 108.423 41.12C110.983 41.12 113.156 40.12 114.943 38.12L116.063 38.84C115.156 40.28 113.956 41.44 112.463 42.32C110.969 43.1733 109.289 43.6 107.423 43.6C104.249 43.6 101.716 42.56 99.8228 40.48C97.9295 38.3733 96.9828 35.84 96.9828 32.88C96.9828 29.92 97.9828 27.44 99.9828 25.44C102.009 23.4133 104.809 22.4 108.383 22.4C110.729 22.4 112.569 22.9467 113.903 24.04C115.236 25.1333 115.903 26.52 115.903 28.2C115.903 29.88 115.156 31.44 113.663 32.88C112.196 34.2933 110.249 35 107.823 35C106.996 35 106.196 34.9067 105.423 34.72L105.343 33.76ZM133.97 22.4C134.77 22.4 135.17 23.16 135.17 24.68V38.56C135.17 39.28 135.343 39.8533 135.69 40.28C136.037 40.68 136.57 40.88 137.29 40.88C138.01 40.88 138.837 40.4933 139.77 39.72L140.49 40.68C138.357 42.6267 136.223 43.6 134.09 43.6C130.81 43.6 129.17 41.64 129.17 37.72V26.48C127.917 26.9867 126.397 27.3333 124.61 27.52C124.397 29.9733 123.69 32.4267 122.49 34.88L120.85 34.4C121.597 32.5067 121.997 30.2533 122.05 27.64C121.037 27.64 120.21 27.3467 119.57 26.76C118.957 26.1733 118.65 25.4533 118.65 24.6C118.65 23.72 118.943 22.9867 119.53 22.4C120.143 21.7867 120.877 21.48 121.73 21.48C122.61 21.48 123.343 21.7867 123.93 22.4C124.517 23.0133 124.81 23.8 124.81 24.76H125.57C127.677 24.76 129.917 24.1733 132.29 23C133.063 22.6 133.623 22.4 133.97 22.4ZM163.575 23V38.56C163.575 39.28 163.749 39.8533 164.095 40.28C164.442 40.68 164.975 40.88 165.695 40.88C166.415 40.88 167.242 40.4933 168.175 39.72L168.895 40.68C166.762 42.6267 164.629 43.6 162.495 43.6C159.962 43.6 158.402 42.4133 157.815 40.04C156.429 42.4133 154.389 43.6 151.695 43.6C148.629 43.6 146.295 42.6133 144.695 40.64C143.095 38.64 142.295 36.1067 142.295 33.04C142.295 29.9467 143.149 27.4 144.855 25.4C146.589 23.4 149.002 22.4 152.095 22.4C154.469 22.4 156.295 23.3467 157.575 25.24V23H163.575ZM149.615 26.92C148.869 28.4133 148.495 30.44 148.495 33C148.495 35.56 148.869 37.5867 149.615 39.08C150.362 40.5733 151.495 41.32 153.015 41.32C154.562 41.32 155.735 40.5733 156.535 39.08C157.362 37.56 157.775 35.5333 157.775 33C157.775 30.4667 157.362 28.4533 156.535 26.96C155.735 25.44 154.562 24.68 153.015 24.68C151.495 24.68 150.362 25.4267 149.615 26.92Z" fill="white"/>
<path d="M171.374 42.72C170.787 42.1067 170.494 41.3733 170.494 40.52C170.494 39.6667 170.787 38.9467 171.374 38.36C171.987 37.7467 172.72 37.44 173.574 37.44C174.427 37.44 175.147 37.7467 175.734 38.36C176.347 38.9467 176.654 39.6667 176.654 40.52C176.654 41.3733 176.347 42.1067 175.734 42.72C175.147 43.3067 174.427 43.6 173.574 43.6C172.72 43.6 171.987 43.3067 171.374 42.72Z" fill="#FB3E7A"/>
<circle cx="23.0158" cy="28.2674" r="11.195" stroke="#DA2D70" stroke-width="4.17205"/>
<circle cx="32.7506" cy="33.4129" r="11.195" stroke="#58ADFE" stroke-width="4.17205"/>
<path d="M51.1654 26.3984C51.1664 26.7042 51.414 26.9519 51.7199 26.9529L53.8311 26.9597C54.1397 26.9607 54.3901 26.7102 54.3891 26.4016L54.3435 12.2229C54.3425 11.9171 54.0949 11.6694 53.789 11.6684L39.6103 11.6228C39.3017 11.6219 39.0513 11.8723 39.0523 12.1809L39.0591 14.2921C39.0601 14.5979 39.3077 14.8456 39.6136 14.8466L47.5116 14.872C48.0063 14.8736 48.253 15.4718 47.9031 15.8216L38.3494 25.3754C38.1322 25.5926 38.1322 25.9448 38.3494 26.162L39.8499 27.6626C40.0672 27.8798 40.4194 27.8798 40.6366 27.6626L50.1904 18.1088C50.5402 17.759 51.1384 18.0057 51.14 18.5004L51.1654 26.3984Z" fill="#58ADFE"/>
<path d="M6.83175 34.6579L3.67863 37.811L7.35521 41.4876L3.67658 45.1662L6.8338 48.3234L10.5124 44.6448L14.189 48.3214L17.3421 45.1683L13.6655 41.4917L17.3442 37.813L14.187 34.6558L10.5083 38.3345L6.83175 34.6579Z" fill="#DA2D70"/>
</svg>
